<svg xmlns="http://www.w3.org/2000/svg" xmlns:xlink="http://www.w3.org/1999/xlink" width="61.176" height="118.488" viewBox="0 0 61.176 118.488">
  <defs>
    <linearGradient id="linear-gradient" x1="-1.308" y1="0.5" x2="1" y2="0.5" gradientUnits="objectBoundingBox">
      <stop offset="0" stop-color="#7ea2d2"/>
      <stop offset="1" stop-color="#452195"/>
    </linearGradient>
  </defs>
  <path id="Path_106" data-name="Path 106" d="M484.881,478.512c-2.3-4.614-10.316-2.963-14.249-3.079l-.028.02a11.147,11.147,0,0,1-9.715-4.506c-2.133-3.661,1-6.387,2.747-9.29a6.744,6.744,0,0,0-1.644-9.394,6.861,6.861,0,0,0-.638-.4c-2.806-1.515-10.825-2.285-5.841-7.541a22.251,22.251,0,0,1,10.649-4.539c4.1-1.106,9.662-3.729,9.089-8.917a7.038,7.038,0,0,0-8.019-5.533c-5.753.722-7.926,5.9-11.471,9.623a7.14,7.14,0,0,1-5.961,2.782c-2.242-.336-2.919-2.121-4.214-3.58a6.722,6.722,0,0,0-5-2.181c-3.207-.16-6.154.633-9.037-1.3-2.233-1.5-3.777-3.849-6.086-5.264a8.935,8.935,0,0,0-1.368-.688V542.812a5.1,5.1,0,0,0,6.981-3.678,12.231,12.231,0,0,0-1.071-7.329,13.874,13.874,0,0,1-.517-12.393,18.831,18.831,0,0,1,5.69-7.341c3.52-2.3,7.685-.71,11.55-.995a14.779,14.779,0,0,0,11.423-7.12,10.423,10.423,0,0,0,1.692-5.962c-.3-3.825-3.207-6.014-2-10.272a13.807,13.807,0,0,1,2.683-5.032,6.387,6.387,0,0,1,7.766-1.8,32.127,32.127,0,0,0,9.153,2.289C479.89,483.247,487.018,482.782,484.881,478.512Z" transform="translate(-424.099 -424.725)" fill="url(#linear-gradient)"/>
</svg>
