<svg xmlns="http://www.w3.org/2000/svg" width="127.789" height="88.293" viewBox="0 0 127.789 88.293">
  <g id="Group_20" data-name="Group 20" transform="translate(-701.211 -433.54)">
    <path id="Path_1" data-name="Path 1" d="M708.484,443.416a3.053,3.053,0,0,0,3.053-3.053v-.022a2.95,2.95,0,0,0-3.028-2.869h-3.455v5.936Zm-7.273-9.016a.562.562,0,0,1,.562-.562h6.953a6.593,6.593,0,1,1,.024,13.185h-3.7v6.954a.581.581,0,0,1-.561.562h-2.72a.563.563,0,0,1-.562-.562V434.4Z" fill="#fff"/>
    <path id="Path_2" data-name="Path 2" d="M718.711,434.4a.562.562,0,0,1,.562-.562h2.713a.583.583,0,0,1,.562.562v16.579h7.537a.561.561,0,0,1,.561.561h0v2.424a.561.561,0,0,1-.561.561H719.264a.561.561,0,0,1-.561-.561h0V434.4Z" fill="#fff"/>
    <path id="Path_3" data-name="Path 3" d="M744.665,447.466l-2.957-6.5h-.088l-2.9,6.5Zm-12.772,6.3,9.2-19.9a.532.532,0,0,1,.508-.326h.3a.511.511,0,0,1,.509.326l9.106,19.9a.521.521,0,0,1-.211.707.516.516,0,0,1-.3.061H748.42a.848.848,0,0,1-.859-.592l-1.448-3.194h-8.838l-1.449,3.194a.892.892,0,0,1-.858.592H732.4a.523.523,0,0,1-.509-.768Z" fill="#fff"/>
    <path id="Path_4" data-name="Path 4" d="M756.608,444.569l-6.74-9.873a.547.547,0,0,1,.473-.858h3.014a.591.591,0,0,1,.473.266l4.731,6.8,4.732-6.8a.585.585,0,0,1,.471-.267h3.053a.548.548,0,0,1,.473.859l-6.828,9.837v9.432a.582.582,0,0,1-.563.561h-2.714a.561.561,0,0,1-.561-.561h0v-9.395Z" fill="#fff"/>
    <path id="Path_5" data-name="Path 5" d="M779.191,437.386h-4.523a.561.561,0,0,1-.561-.561V434.4a.562.562,0,0,1,.561-.562h12.919a.562.562,0,0,1,.561.562v2.425a.561.561,0,0,1-.561.561h-4.522v16.586a.582.582,0,0,1-.563.562h-2.749a.583.583,0,0,1-.562-.562Z" fill="#fff"/>
    <path id="Path_6" data-name="Path 6" d="M791.222,434.4a.581.581,0,0,1,.561-.562h2.749a.562.562,0,0,1,.562.562v7.834h9.637V434.4a.562.562,0,0,1,.561-.562h2.714a.581.581,0,0,1,.561.562v19.571a.581.581,0,0,1-.561.561h-2.714a.561.561,0,0,1-.561-.561v-8.16h-9.637v8.16a.562.562,0,0,1-.562.561h-2.749a.581.581,0,0,1-.561-.561Z" fill="#fff"/>
    <path id="Path_7" data-name="Path 7" d="M813.954,434.4a.562.562,0,0,1,.562-.562h12.031a.563.563,0,0,1,.564.56v2.427a.562.562,0,0,1-.562.561H817.8v4.848h7.3a.58.58,0,0,1,.561.561v2.454a.563.563,0,0,1-.561.562h-7.3v5.168h8.75a.561.561,0,0,1,.564.559v2.426a.562.562,0,0,1-.562.561H814.516a.562.562,0,0,1-.562-.561V434.4Z" fill="#fff"/>
    <path id="Path_8" data-name="Path 8" d="M701.211,464.822a.949.949,0,0,1,.948-.951H722.87a.949.949,0,0,1,.95.949v5.453a.95.95,0,0,1-.95.95H709.013v7.2h11.4a.984.984,0,0,1,.95.95v5.451a.984.984,0,0,1-.95.95h-11.4v12.154a.985.985,0,0,1-.95.952h-5.9a.95.95,0,0,1-.95-.95Z" fill="#fff"/>
    <path id="Path_9" data-name="Path 9" d="M744.775,491.381a10.007,10.007,0,1,0-9.954-10.059q0,.05,0,.1a10.022,10.022,0,0,0,9.954,9.955Zm0-28.011a18.007,18.007,0,1,1-17.957,18.058v-.007a17.98,17.98,0,0,1,17.906-18.051Z" fill="#fff"/>
    <path id="Path_10" data-name="Path 10" d="M808.294,464.822a.949.949,0,0,1,.948-.951H815.2a.982.982,0,0,1,.949.951V491.53h11.9a.95.95,0,0,1,.95.95v5.451a.95.95,0,0,1-.948.952H809.244a.951.951,0,0,1-.95-.95V464.822Z" fill="#fff"/>
    <path id="Path_11" data-name="Path 11" d="M759.824,513.214a.237.237,0,0,1,.237-.235h4.987a.237.237,0,0,1,.237.235v.7a.235.235,0,0,1-.234.238h-3.938v2.883h3.324a.247.247,0,0,1,.238.238v.678a.246.246,0,0,1-.238.237h-3.324v3.276a.245.245,0,0,1-.236.237h-.809a.237.237,0,0,1-.237-.237v-8.245Z" fill="#fff"/>
    <path id="Path_12" data-name="Path 12" d="M769.363,513.214a.237.237,0,0,1,.237-.235h4.982a.237.237,0,0,1,.237.235v.7a.236.236,0,0,1-.234.238h-3.938v2.544h3.326a.244.244,0,0,1,.237.237v.7a.235.235,0,0,1-.236.236h-3.327v2.678h3.935a.238.238,0,0,1,.237.238v.678a.238.238,0,0,1-.237.238H769.6a.239.239,0,0,1-.238-.238v-8.244Z" fill="#fff"/>
    <path id="Path_13" data-name="Path 13" d="M778.628,520.438c.112-.17.212-.348.324-.509a.282.282,0,0,1,.377-.128.316.316,0,0,1,.046.028,3.65,3.65,0,0,0,1.993.86,1.253,1.253,0,0,0,1.4-1.086c0-.024.006-.047.007-.071,0-.748-.648-1.221-1.881-1.732-1.27-.535-2.266-1.187-2.266-2.64a2.433,2.433,0,0,1,2.541-2.319c.062,0,.125.008.187.015a4.214,4.214,0,0,1,2.3.737.3.3,0,0,1,.084.408l-.01.014c-.1.149-.212.325-.312.475a.294.294,0,0,1-.389.149.262.262,0,0,1-.047-.025,3.815,3.815,0,0,0-1.681-.623c-1.046,0-1.407.66-1.407,1.12,0,.71.548,1.144,1.58,1.568,1.446.586,2.679,1.269,2.679,2.79a2.546,2.546,0,0,1-2.719,2.358l-.058-.005a4.031,4.031,0,0,1-2.678-.984.263.263,0,0,1-.1-.357.25.25,0,0,1,.029-.043Z" fill="#fff"/>
    <path id="Path_14" data-name="Path 14" d="M789.563,514.149h-2.035a.236.236,0,0,1-.238-.234v-.7a.237.237,0,0,1,.238-.235h5.354a.237.237,0,0,1,.238.235v.7a.236.236,0,0,1-.234.238h-2.039v7.31a.245.245,0,0,1-.238.237h-.82a.245.245,0,0,1-.238-.237v-7.31Z" fill="#fff"/>
    <path id="Path_15" data-name="Path 15" d="M796.96,513.214a.245.245,0,0,1,.237-.235h.821a.245.245,0,0,1,.237.235v8.245a.245.245,0,0,1-.237.237H797.2a.245.245,0,0,1-.237-.237v-8.245Z" fill="#fff"/>
    <path id="Path_16" data-name="Path 16" d="M802,513.3a.221.221,0,0,1,.09-.3.224.224,0,0,1,.122-.025h.884a.247.247,0,0,1,.212.137l2.739,6.165h.074l2.74-6.165a.228.228,0,0,1,.212-.137h.883a.221.221,0,0,1,.238.2.225.225,0,0,1-.026.122l-3.823,8.38a.236.236,0,0,1-.212.137h-.124a.25.25,0,0,1-.212-.137L802,513.3Z" fill="#fff"/>
    <path id="Path_17" data-name="Path 17" d="M817.83,518.733l-1.527-3.412h-.063l-1.526,3.412Zm-5.641,2.639,3.822-8.38a.291.291,0,0,1,.212-.137h.124a.287.287,0,0,1,.212.137l3.8,8.38a.221.221,0,0,1-.091.3.212.212,0,0,1-.121.025h-.779a.29.29,0,0,1-.287-.186l-.771-1.706h-4.071c-.249.573-.509,1.133-.76,1.706a.311.311,0,0,1-.286.186h-.784a.221.221,0,0,1-.212-.324Z" fill="#fff"/>
    <path id="Path_18" data-name="Path 18" d="M824.093,513.214a.237.237,0,0,1,.238-.235h.821a.245.245,0,0,1,.237.235v7.324h3.374a.237.237,0,0,1,.237.237v.679a.237.237,0,0,1-.237.237h-4.434a.237.237,0,0,1-.237-.237v-8.24Z" fill="#fff"/>
    <path id="Path_19" data-name="Path 19" d="M815.759,477.531a1.952,1.952,0,0,0-2.624-.859c-.057.029-.114.061-.168.1a3,3,0,0,0-.772.7c-.2.22-.508.29-.7.49a.571.571,0,0,0-.047.8.6.6,0,0,0,.169.13l.051.015c.17.654,2.156,1.034,2.575,1.017a1.661,1.661,0,0,0,1.513-2.383Z" fill="#c82430"/>
    <path id="Path_20" data-name="Path 20" d="M808.832,489.756a2.712,2.712,0,0,0-2.946.17l-.01-.031a.089.089,0,0,0-.121-.032.1.1,0,0,0-.032.032,1.733,1.733,0,0,0-.1.307l-.044.049a.179.179,0,0,0,0,.234c-.049,1.81,3.129,3.109,4.274,1.573.707-.949-.19-1.886-1.033-2.3Z" fill="#c82430"/>
    <path id="Path_21" data-name="Path 21" d="M796.832,461.876h.036a.152.152,0,0,0,.136.078,6.511,6.511,0,0,0,4.732-1.81c1.124-1.1,1.636-2.632.32-3.806a2.847,2.847,0,0,0-3.748-.122c-1.664,1.282-1.408,3.318-2.461,4.927a.272.272,0,0,0,0,.273c.186.351.626.38.982.455Z" fill="#c82430"/>
    <path id="Path_22" data-name="Path 22" d="M781.537,458.441a1.086,1.086,0,0,0,0,.312c.044.287.545.218.509-.072-.078-.642,1.791-1.866,2.168-2.424a4.2,4.2,0,0,0,.753-2.616c-.09-1.545-1.038-3.1-2.746-2.92-4.071.434-3.024,5.8-.691,7.719Z" fill="#c82430"/>
    <path id="Path_23" data-name="Path 23" d="M776.179,505.721a.241.241,0,0,0-.353.137,3.507,3.507,0,0,0-2.766,2.439c-.463,1.335-.253,3.393,1.423,3.713,1.511.283,2.482-1.187,2.834-2.441a3.089,3.089,0,0,0-1.138-3.848Z" fill="#c82430"/>
    <path id="Path_24" data-name="Path 24" d="M765.384,466.284a15.681,15.681,0,0,0,3.453.517c.656.034,1.216.034,1.56-.581a.131.131,0,0,0,.139-.2,9.346,9.346,0,0,0-4.564-3.9c-1.275-.48-3.344-.431-3.656,1.278-.3,1.647,1.83,2.528,3.068,2.884Z" fill="#c82430"/>
    <path id="Path_25" data-name="Path 25" d="M759.183,477.739a3.8,3.8,0,0,0,3.044-.03c.116.124.4.052.377-.148-.082-.987-1.142-1.491-1.954-1.823-.667-.271-1.706-.463-2.224.2C757.87,476.656,758.52,477.442,759.183,477.739Z" fill="#c82430"/>
    <path id="Path_26" data-name="Path 26" d="M765.306,491.986a.248.248,0,0,0-.231.222c-1.569.545-3.243.377-4.841.826a9.027,9.027,0,0,0-3.714,2.11c-1.742,1.637-3.063,4.475.243,4.99,3.516.55,3.694-2.993,5.844-4.8a11.066,11.066,0,0,1,2.714-1.356,1.616,1.616,0,0,0,.9-.8A.849.849,0,0,0,765.3,492Z" fill="#c82430"/>
    <path id="Path_27" data-name="Path 27" d="M807.258,481.388a4.718,4.718,0,0,1-4.11-1.907c-.9-1.548.424-2.7,1.162-3.93a2.853,2.853,0,0,0-.7-3.974,2.68,2.68,0,0,0-.27-.167c-1.187-.642-4.579-.967-2.471-3.191a9.421,9.421,0,0,1,4.505-1.92c1.733-.468,4.087-1.577,3.845-3.772a2.976,2.976,0,0,0-3.392-2.34c-2.434.3-3.353,2.495-4.853,4.07a3.017,3.017,0,0,1-2.522,1.177c-.948-.142-1.235-.9-1.782-1.514a2.842,2.842,0,0,0-2.114-.923c-1.357-.068-2.6.268-3.823-.551-.944-.635-1.6-1.628-2.574-2.227a3.83,3.83,0,0,0-2.94-.468,4.378,4.378,0,0,0-1.507.773,2.439,2.439,0,0,1-2.773.275c-1.942-.694-2.448.7-3.377,2.1-1.466,2.2-2.933-.378-3.381-1.866a25.294,25.294,0,0,0-1.406-4.058,5.4,5.4,0,0,0-4.623-3.323,2.715,2.715,0,0,0-2.987,1.537,4.355,4.355,0,0,0,1.413,3.967,14.984,14.984,0,0,0,4.357,3c2.432,1.375,3.811,5.215,1.018,6.971-1.517.956-3.547.724-4.919,1.95a2.445,2.445,0,0,0-.875,1.613c-.071.862.534,1.611.49,2.453-.059,1.151-1.27,1.526-1.893,2.289a2.546,2.546,0,0,0-.588,1.673c0,1.8,1.453,3.275,2.071,4.918.123,1.164-.272,2.375-1.713,2.451a6.8,6.8,0,0,1-2.438-.644,19.112,19.112,0,0,0-4.011-1.317c-1.63-.232-4.562.218-4.328,2.465.212,2.035,2.749,2.686,4.425,2.819,3.07.242,6.275-2.117,9.081-.421a.258.258,0,0,0,.064.149c1.357,1.437.848,3.53,1.309,5.289a3.879,3.879,0,0,0,2.565,2.713,26.824,26.824,0,0,0,2.714.645c.724.188,1.769.509,2.081,1.3a4.117,4.117,0,0,1-.109,2.127,2.349,2.349,0,0,0,1.442,2.714,2.094,2.094,0,0,0,2.624-1.375l.005-.016c.293-.938-.3-2.819.983-3.251s2.989,1.236,3.471,2.234c.632,1.323-.067,2.159-.229,3.439a4.231,4.231,0,0,0,3.2,4.58.19.19,0,0,0,.182-.053,2.161,2.161,0,0,0,2.845-1.115,2.191,2.191,0,0,0,.136-.432,5.173,5.173,0,0,0-.453-3.1,5.871,5.871,0,0,1-.218-5.243,7.967,7.967,0,0,1,2.406-3.105c1.489-.974,3.252-.3,4.887-.421a6.253,6.253,0,0,0,4.832-3.012,4.413,4.413,0,0,0,.716-2.522c-.129-1.618-1.357-2.544-.849-4.346a5.864,5.864,0,0,1,1.135-2.128,2.7,2.7,0,0,1,3.285-.76,13.6,13.6,0,0,0,3.873.969c1.034.027,4.05-.17,3.146-1.976-.974-1.953-4.364-1.254-6.028-1.3Z" fill="#c82430"/>
    <path id="Path_28" data-name="Path 28" d="M798.651,486.291c-2.592,5.605-7.945,7.971-14.366,8.155-.092,0-.9-.17-1.247-.219a14.042,14.042,0,0,1-10.995-10.646,14.585,14.585,0,0,1,7.344-15.06,17.248,17.248,0,0,1,8.512-1.08,12.074,12.074,0,0,1,8.089,3.758,13.305,13.305,0,0,1,2.664,15.1Z" fill="#c82430"/>
    <path id="Path_29" data-name="Path 29" d="M798.651,486.291l-.806-.373a11.992,11.992,0,0,1-5.358,5.7,18.491,18.491,0,0,1-8.226,1.937l.024.887-.014-.887.012.75v-.75h-.012l.012.75v-.118l.066-.629h-.066v.633l.066-.629v0h0v0c-.015,0-.091-.014-.181-.031l-.5-.093c-.179-.032-.352-.065-.488-.087l-.141.877.2-.865a14.926,14.926,0,0,1-6.684-3.489,11.528,11.528,0,0,1-3.64-6.445,11.783,11.783,0,0,1-.181-2.088,14.4,14.4,0,0,1,1.925-7.06,12.116,12.116,0,0,1,5.113-4.953,13.285,13.285,0,0,1,5.782-1.073c.765,0,1.527.032,2.29.079a11.026,11.026,0,0,1,4.07,1.018,12.146,12.146,0,0,1,3.437,2.478,12.424,12.424,0,0,1,3.665,8.792,12.636,12.636,0,0,1-1.177,5.3l.8.372.806.371a14.391,14.391,0,0,0,1.34-6.044,14.206,14.206,0,0,0-4.183-10.046,13.948,13.948,0,0,0-3.938-2.833,12.824,12.824,0,0,0-4.725-1.187c-.779-.047-1.584-.083-2.4-.083a15.014,15.014,0,0,0-6.554,1.248,13.886,13.886,0,0,0-5.88,5.67,16.184,16.184,0,0,0-2.163,7.945,13.507,13.507,0,0,0,.211,2.4,13.3,13.3,0,0,0,4.184,7.441,16.682,16.682,0,0,0,7.485,3.914h.059c.148.024.436.078.692.128l.354.064.146.024.073.01a.817.817,0,0,0,.121,0h.027a20.236,20.236,0,0,0,9.013-2.146,13.777,13.777,0,0,0,6.134-6.524l-.807-.373Z" fill="#fff"/>
    <path id="Path_30" data-name="Path 30" d="M792.036,472.753a3.947,3.947,0,0,1,.826.232,6.215,6.215,0,0,1,2.949,3.689,10.161,10.161,0,0,1,.3,1.053c.075.321-.042.509-.378.553-.392.044-.782.117-1.174.17a.524.524,0,0,1-.629-.391.57.57,0,0,1-.012-.07,14.25,14.25,0,0,0-1.947-5.061l.07-.17Z" fill="#fff"/>
  </g>
</svg>
